<?xml version="1.0" encoding="utf-8"?>
<!-- Generator: Adobe Illustrator 22.0.1, SVG Export Plug-In . SVG Version: 6.00 Build 0)  -->
<svg version="1.1" id="Layer_1" xmlns="http://www.w3.org/2000/svg" xmlns:xlink="http://www.w3.org/1999/xlink" x="0px" y="0px"
	 viewBox="0 0 194.1 48.3" style="enable-background:new 0 0 194.1 48.3;" xml:space="preserve">
<style type="text/css">
	.Drop_x0020_Shadow{fill:none;}
	.Thick_x0020_Blue_x0020_Neon{fill:none;stroke:#0073BC;stroke-width:10;stroke-linecap:round;stroke-linejoin:round;}
	.Illuminating_x0020_Aqua{fill:url(#SVGID_1_);stroke:#FFFFFF;stroke-width:0.25;stroke-miterlimit:1;}
	.Black_x0020_Highlight{fill:url(#SVGID_2_);stroke:#FFFFFF;stroke-width:0.3629;stroke-miterlimit:1;}
	.Bugaboo_GS{fill-rule:evenodd;clip-rule:evenodd;fill:#FFDD00;}
	.st0{fill:#FEFEFF;}
	.st1{opacity:2.000000e-02;fill:#A9C0FF;}
	.st2{opacity:4.000000e-02;fill:#A9C0FF;}
	.st3{opacity:5.000000e-02;fill:#A9C0FF;}
	.st4{fill:#977BFF;}
	.st5{fill:#2DB6FF;}
	.st6{fill:#FFFFFF;}
	.st7{fill:url(#SVGID_5_);}
	.st8{fill:url(#SVGID_6_);}
	.st9{fill:#363B4A;}
	.st10{fill:#697497;}
	.st11{fill:url(#SVGID_7_);}
	.st12{fill:none;stroke:#ECECEC;stroke-width:5.7589;stroke-linecap:round;stroke-linejoin:round;stroke-miterlimit:10;}
	.st13{fill:none;stroke:#4E4878;stroke-width:7;stroke-miterlimit:10;}
	.st14{fill:url(#SVGID_14_);}
	.st15{fill:none;stroke:#ECECEC;stroke-width:5;stroke-linecap:round;stroke-linejoin:round;stroke-miterlimit:10;}
	.st16{fill:none;stroke:#5FECFF;stroke-width:3;stroke-miterlimit:10;}
	.st17{fill:#6956EC;}
	.st18{fill:url(#SVGID_15_);}
	.st19{fill:url(#SVGID_16_);}
	.st20{fill:url(#SVGID_17_);}
	.st21{fill:url(#SVGID_18_);}
	.st22{fill:url(#SVGID_19_);}
	.st23{fill:url(#SVGID_20_);}
	.st24{fill:url(#SVGID_21_);}
	.st25{fill:url(#SVGID_22_);}
	.st26{fill:url(#SVGID_23_);}
	.st27{fill:url(#SVGID_24_);}
	.st28{fill:url(#SVGID_25_);}
	.st29{clip-path:url(#SVGID_27_);fill:#3B404F;}
	.st30{fill:url(#SVGID_28_);}
	.st31{fill:url(#SVGID_29_);}
	.st32{fill:url(#SVGID_30_);}
	.st33{fill:url(#SVGID_31_);}
	.st34{fill:url(#SVGID_32_);}
	.st35{fill:url(#SVGID_33_);}
	.st36{fill:url(#SVGID_34_);}
	.st37{fill:url(#SVGID_35_);}
	.st38{fill:url(#SVGID_36_);}
	.st39{fill:url(#SVGID_43_);}
	.st40{fill:url(#SVGID_44_);}
	.st41{fill:url(#SVGID_47_);}
	.st42{fill:url(#SVGID_48_);}
	.st43{fill:url(#SVGID_51_);}
	.st44{fill:url(#SVGID_52_);}
	.st45{fill:url(#SVGID_53_);}
	.st46{fill:url(#SVGID_54_);}
	.st47{fill:#7A64F1;}
	.st48{fill:#5FECFF;}
	.st49{fill:#2F343F;}
	.st50{opacity:0.2;fill:#1E1E21;}
	.st51{fill:#E1E1E5;}
	.st52{fill:none;stroke:#BFBFC1;stroke-width:0.3507;stroke-miterlimit:10;}
	.st53{fill:#F73757;}
	.st54{fill:none;stroke:#BFBFC1;stroke-width:0.3507;stroke-linecap:round;stroke-miterlimit:10;}
	.st55{fill:none;stroke:#1E1E21;stroke-width:0.25;stroke-miterlimit:10;}
	.st56{fill:#1E1E21;}
</style>
<linearGradient id="SVGID_1_" gradientUnits="userSpaceOnUse" x1="-1452" y1="330.954" x2="-1452" y2="329.954">
	<stop  offset="0" style="stop-color:#1D59F4"/>
	<stop  offset="0.618" style="stop-color:#2D65EE"/>
	<stop  offset="0.6292" style="stop-color:#3864F3"/>
	<stop  offset="0.9831" style="stop-color:#00DDFC"/>
</linearGradient>
<linearGradient id="SVGID_2_" gradientUnits="userSpaceOnUse" x1="-1452" y1="330.954" x2="-1452" y2="329.954">
	<stop  offset="0" style="stop-color:#060606"/>
	<stop  offset="0.618" style="stop-color:#000000"/>
	<stop  offset="0.6292" style="stop-color:#000000"/>
	<stop  offset="0.9831" style="stop-color:#000000"/>
</linearGradient>
<g>
	<path class="st17" d="M27,10.7v37.1H15.4V10.7H2.1V0.5h38.2v10.1H27z"/>
	<path class="st17" d="M74.1,47.7L59.8,31.5h-2.4v16.2H45.8V0.5h22.9c10.2,0,17,6.2,17,15.4c0,7.8-4.8,13.3-12.4,15l14.8,16.8H74.1z
		 M67.4,21.8c4.2,0,6.8-2.3,6.8-5.7c0-3.4-2.7-5.6-6.8-5.6h-10v11.3H67.4z"/>
	<path class="st17" d="M87.9,28.5l34.8-27.6c1-0.8,2.4-0.1,2.4,1.2v44.2c0,1.5-1.9,2.1-2.7,0.9l-12.4-16.9l-21.2,1
		C87.5,31.3,86.8,29.4,87.9,28.5z"/>
	<path class="st17" d="M134.8,47.7V0.5h11.6v47.2H134.8z"/>
	<path class="st17" d="M192.1,47.7h-35.9V0.5h11.6v37.1h24.2V47.7z"/>
	<circle class="st17" cx="104.3" cy="41.9" r="4.2"/>
</g>
</svg>
